<mxfile host="app.diagrams.net" modified="2024-05-01T17:50:44.938Z" agent="Mozilla/5.0 (Windows NT 10.0; Win64; x64) AppleWebKit/537.36 (KHTML, like Gecko) Chrome/124.0.0.0 Safari/537.36" version="24.3.0" etag="X8vmV4065IWhwBjqS4sR" type="github">
  <diagram name="Page-1" id="fWxBxS3J1ETNPWwSrwuA">
    <mxGraphModel>
      <root>
        <mxCell id="0" />
        <mxCell id="1" parent="0" />
      </root>
    </mxGraphModel>
  </diagram>
</mxfile>
